<?xml version="1.0" standalone="yes"?>
<!DOCTYPE svg PUBLIC "-//W3C//DTD SVG 1.1//EN" "http://www.w3.org/Graphics/SVG/1.1/DTD/svg11.dtd">
<svg xmlns="http://www.w3.org/2000/svg" xmlns:xlink="http://www.w3.org/1999/xlink" version="1.1" width="6416.0" height="9720.0" viewBox="-1856,-3363 6416,9720">
<g id="state_outline">
<path id="1728" d="M -1087,-3246 l 1075,-37 906,-34 184,-7 317,-11 594,-22 388,-6 -6,379 -7,469 -4,570 363,-77 10,51 -10,30 -10,40 5,56 21,101 10,60 16,76 5,40 -5,40 -15,46 -26,76 -5,20 10,40 11,25 0,25 -15,31 -16,25 -25,40 0,36 -5,40 15,50 16,41 0,106 10,30 16,20 25,30 26,30 10,36 10,30 16,30 10,20 66,38 282,160 190,109 283,402 0,41 -16,56 -15,71 -71,30 -21,-10 -46,-71 -41,-105 -31,15 0,35 -5,40 41,86 77,111 47,116 -10,75 -31,26 -72,40 -30,41 5,45 -26,30 -10,76 -51,15 -36,-45 -10,-91 -52,-50 -30,-66 -62,-10 -56,116 -15,36 -15,50 -46,0 -11,-20 -15,-10 -5,-40 0,-91 -1,-71 21,-45 56,-56 25,-35 5,-50 -10,-56 0,-75 15,-46 26,-60 15,-31 36,-70 15,-41 0,-45 5,-61 0,-50 15,-40 -10,-56 -36,-91 -41,31 -26,35 -10,81 -20,5 -26,-10 -41,-15 -41,-50 -21,-61 36,-66 -41,-50 -51,0 -10,51 -5,50 -5,45 41,81 97,76 67,75 21,91 -41,45 -16,41 -5,60 -20,25 -20,-10 -16,-85 -26,-46 -46,-35 -46,-20 -51,-5 -36,5 -36,-10 -20,-30 0,-35 -16,-66 -41,-60 -36,-41 -20,-50 -57,10 0,-80 -26,-66 -41,-15 -25,-35 35,-101 -20,-76 -26,-90 -36,-91 -82,-86 -10,-15 15,-70 41,-86 56,-111 35,-86 5,-81 5,-65 -51,-56 -46,86 -5,40 -10,46 0,40 -25,41 -21,55 -41,141 -30,6 -51,-26 -16,21 52,126 15,45 31,30 36,15 25,35 16,26 -5,30 -36,35 -5,56 10,75 16,71 10,55 -5,36 -5,15 31,50 0,46 15,35 47,10 10,20 -46,40 5,41 5,50 -15,66 31,45 36,30 51,20 138,0 5,25 -143,51 5,35 5,25 -4,71 5,81 -26,45 -41,51 -10,50 11,56 -26,80 -41,5 -61,-55 -31,-40 25,-86 -30,-30 -26,25 -56,-25 -16,-66 -20,16 5,55 -138,-5 -103,-10 -102,-35 10,126 1,61 0,50 30,25 36,-5 46,-30 26,-5 31,-10 20,35 26,15 36,15 56,20 -10,66 0,30 5,35 10,61 -4,75 20,56 10,35 6,66 -67,0 -25,30 76,30 31,71 -61,40 -46,46 21,45 81,5 16,86 -46,55 -77,25 -107,31 -67,35 -61,-30 -26,51 21,65 51,20 16,76 66,45 21,30 -15,25 0,21 10,35 25,-5 16,5 -21,25 57,207 11,171 -56,116 0,182 31,70 -10,101 -62,0 -20,20 -10,66 36,101 -36,50 -20,86 -56,15 -87,51 -21,25 -10,30 0,81 21,106 -20,75 -46,66 -36,65 -67,91 -51,76 -20,61 -20,50 20,86 -15,35 -56,-15 -31,-40 -26,-36 -51,-25 -56,-30 -31,-15 -5,-35 10,-30 20,-16 31,-35 36,-20 20,-20 10,-16 21,-20 5,-35 -10,-40 10,-26 0,-30 -11,-20 -25,-35 5,-66 -5,-55 -77,10 0,56 -26,65 -15,66 -36,106 1,30 -31,30 -10,30 10,46 -5,55 -51,5 -56,21 -41,10 -16,5 -71,-10 -31,0 -67,10 -56,10 -15,5 -31,11 -36,20 -51,15 -41,5 -10,5 -16,5 -15,0 -36,21 -102,0 -108,20 -56,30 -112,51 -52,20 -35,15 -169,66 -205,71 -107,91 -77,20 -77,11 -72,0 -122,25 -93,-15 -30,15 -31,-5 -31,0 -36,16 -76,20 -87,15 -220,46 -149,61 -112,85 -31,10 -10,-60 -36,0 -72,20 -72,36 -20,-10 -15,-15 10,-56 30,-20 82,-5 103,-5 46,-61 15,-5 20,-66 0,-31 41,-30 62,-45 35,-25 21,-25 10,-35 0,-31 -10,-30 -14,-31 -22,-44 -10,-46 -11,-35 5,-35 10,-26 11,-45 10,-60 5,-61 -10,-30 -11,-30 -10,-21 -18,-19 -18,-31 0,-30 -2,-25 0,-31 -5,-25 6,-20 11,-25 10,-20 16,-10 20,-11 20,-10 62,-40 20,-15 26,-20 25,-11 149,46 21,-32 13,-358 55,-1310 0,-166 4,-171 10,-439 0,-15 -11,-600 -6,-323 -25,-1024 -20,-1144 -4,-213 -2,-236 z" />
<path id="1740" d="M 3895,416 l 26,41 164,40 -5,30 363,95 11,80 -31,132 5,35 11,25 0,50 -16,31 -15,20 -15,25 -10,25 -5,36 -5,35 -5,45 5,46 10,35 26,45 46,56 84,846 16,197 5,55 -46,6 -36,5 -31,16 -51,25 -10,45 -5,56 -36,40 -46,31 -56,15 -25,30 -26,0 -31,36 -25,35 0,45 -36,26 -56,5 -36,15 -36,30 -36,20 -35,-15 25,-75 25,-71 16,-91 -26,-110 -36,-46 -36,-60 -31,-35 -10,-56 35,-45 21,-46 -10,-20 -42,-40 -10,-30 10,-46 -25,-60 5,-35 30,-76 -20,-35 -82,-46 -1,-40 0,-65 -25,-56 30,-10 57,20 15,-35 -10,-106 -1,-25 -5,-51 -5,-20 -20,-20 25,-61 20,-40 21,-20 10,-20 0,-36 -16,-30 -20,-30 -26,-40 0,-66 -10,-106 0,-25 10,-81 -6,-55 16,-71 15,-55 10,-51 15,-121 36,-60 z" />
<path id="1742" d="M 2771,1478 l -10,-85 0,-121 35,-86 20,-106 -10,-76 -31,-20 -82,-5 -77,-80 11,-71 25,-30 56,-46 -5,-35 -31,-96 21,-50 51,-5 20,25 31,86 -10,45 0,91 26,50 164,96 56,50 26,35 15,81 -76,222 -97,121 -66,40 z" />
<path id="1743" d="M 2860,2396 l 5,-61 -10,-20 0,-30 10,-51 -36,-30 15,-65 92,30 21,-51 -5,-75 10,-137 25,-101 46,-90 30,-41 46,-70 51,-162 15,-55 5,-21 67,-111 20,-196 36,-41 51,-15 41,-86 56,-50 158,-66 72,-91 25,10 1,111 20,60 0,91 -15,56 -20,20 -46,10 -87,30 -5,121 -36,192 83,141 -15,86 -5,116 15,80 1,162 56,50 -20,126 -26,86 -56,76 -20,70 -26,81 26,50 36,51 -15,35 -36,91 -36,-5 10,-51 11,-25 -6,-10 -5,-15 -15,-15 -31,-30 -87,-35 -51,15 0,35 -26,35 -56,-10 -31,-45 -102,21 -15,85 0,106 -51,56 -36,121 -36,-15 -87,-66 -36,31 -61,45 -46,20 -46,-25 -36,21 -46,35 -31,-30 -10,-56 -31,-35 10,-50 67,-51 56,-50 66,-86 11,80 20,10 31,-5 41,-35 77,-41 -16,-75 -26,-66 z" />
<path id="1744" d="M 3169,807 l 15,-25 46,-21 46,20 0,15 1,36 -11,10 -5,20 -20,25 -36,-5 -41,-25 z" />
<path id="1749" d="M 2227,2972 l -26,-46 10,-45 31,-76 5,-70 -32,-202 21,-45 97,25 56,-11 -30,-45 5,-40 20,-51 -51,-70 -52,-161 51,-192 25,-187 61,-141 46,-25 52,10 41,70 5,71 5,50 5,56 -45,111 5,262 -15,25 10,25 51,35 0,26 -30,50 -31,46 -5,55 57,121 -31,50 -97,11 -51,-10 -10,40 -11,25 -5,46 -15,40 -41,0 -5,81 -25,40 z" />
<path id="1763" d="M 1009,6184 l -26,36 -81,40 -82,10 -92,6 -77,15 -118,51 -67,15 -46,-66 10,-40 0,-141 26,-151 66,-51 41,-60 20,-21 36,56 72,55 67,-40 -21,-66 -72,-100 20,-21 31,-50 5,-66 -26,-191 36,-5 159,100 11,182 -36,156 5,96 62,121 z" />
</g>
<g stroke="black" fill="none" stroke-linejoin="round" stroke-width="10" clip-path="url(#state_clip_path)">
<use xlink:href="#state_outline" fill="white" stroke-width="44" />
<path id="Bristol" d="M 2899,-663 l 282,160 190,109 283,402 0,41 -16,56 -15,71 -71,30 -21,-10 -46,-71 -41,-105 -31,15 0,35 -5,40 41,86 77,111 47,116 -10,75 -31,26 -72,40 -30,41 5,45 -26,30 -10,76 -51,15 -36,-45 -10,-91 -52,-50 -30,-66 -62,-10 -56,116 -15,36 -15,50 -46,0 -11,-20 -15,-10 -5,-40 0,-91 -1,-71 21,-45 56,-56 25,-35 5,-50 -10,-56 0,-75 15,-46 26,-60 15,-31 36,-70 15,-41 0,-45 5,-61 0,-50 15,-40 -10,-56 -36,-91 -41,31 -26,35 -10,81 -20,5 -26,-10 -41,-15 -41,-50 -21,-61 36,-66 -41,-50 -51,0 -10,51 -5,50 -5,45 41,81 97,76 67,75 21,91 -41,45 -16,41 -5,60 -20,25 -20,-10 -16,-85 -26,-46 -46,-35 -46,-20 -51,-5 -36,5 -36,-10 -20,-30 0,-35 -16,-66 -41,-60 -36,-41 -20,-50 15,-35 z" />
<path id="Kent" d="M -1030,-73 l 1500,-48 1264,-37 51,-56 41,-40 20,-31 -10,-65 0,-20 20,-20 16,-11 5,-15 15,-40 15,-25 26,-10 31,5 51,-6 30,-45 26,10 26,-10 46,-25 61,-11 15,-30 16,-5 46,50 36,36 20,30 -5,15 31,50 0,46 15,35 47,10 10,20 -46,40 5,41 5,50 -15,66 31,45 36,30 51,20 138,0 5,25 -143,51 5,35 5,25 -4,71 5,81 -26,45 -41,51 -10,50 11,56 -26,80 -41,5 -61,-55 -31,-40 25,-86 -30,-30 -26,25 -56,-25 -16,-66 -20,16 5,55 -138,-5 -103,-10 -102,-35 10,126 1,61 0,50 30,25 36,-5 46,-30 26,-5 31,-10 20,35 26,15 36,15 56,20 -10,66 0,30 -82,-10 -67,41 -51,15 -71,30 -21,61 -30,45 -10,61 -16,20 -15,-5 -31,-55 -31,-16 -71,41 -67,35 -15,56 -20,30 -36,30 -10,51 36,70 -10,71 -1162,32 -169,11 -82,5 -1127,-3 10,-439 0,-15 -11,-600 z" />
<g id="Newport">
<path id="2590" d="M 3895,416 l 26,41 164,40 -5,30 363,95 11,80 -31,132 5,35 11,25 0,50 -16,31 -15,20 -15,25 -10,25 -5,36 -5,35 -5,45 5,46 10,35 26,45 46,56 84,846 16,197 5,55 -46,6 -36,5 -31,16 -51,25 -10,45 -5,56 -36,40 -46,31 -56,15 -25,30 -26,0 -31,36 -25,35 0,45 -36,26 -56,5 -36,15 -36,30 -36,20 -35,-15 25,-75 25,-71 16,-91 -26,-110 -36,-46 -36,-60 -31,-35 -10,-56 35,-45 21,-46 -10,-20 -42,-40 -10,-30 10,-46 -25,-60 5,-35 30,-76 -20,-35 -82,-46 -1,-40 0,-65 -25,-56 30,-10 57,20 15,-35 -10,-106 -1,-25 -5,-51 -5,-20 -20,-20 25,-61 20,-40 21,-20 10,-20 0,-36 -16,-30 -20,-30 -26,-40 0,-66 -10,-106 0,-25 10,-81 -6,-55 16,-71 15,-55 10,-51 15,-121 36,-60 z" />
<path id="2593" d="M 2771,1478 l -10,-85 0,-121 35,-86 20,-106 -10,-76 -31,-20 -82,-5 -77,-80 11,-71 25,-30 56,-46 -5,-35 -31,-96 21,-50 51,-5 20,25 31,86 -10,45 0,91 26,50 164,96 56,50 26,35 15,81 -76,222 -97,121 -66,40 z" />
<path id="2597" d="M 2860,2396 l 5,-61 -10,-20 0,-30 10,-51 -36,-30 15,-65 92,30 21,-51 -5,-75 10,-137 25,-101 46,-90 30,-41 46,-70 51,-162 15,-55 5,-21 67,-111 20,-196 36,-41 51,-15 41,-86 56,-50 158,-66 72,-91 25,10 1,111 20,60 0,91 -15,56 -20,20 -46,10 -87,30 -5,121 -36,192 83,141 -15,86 -5,116 15,80 1,162 56,50 -20,126 -26,86 -56,76 -20,70 -26,81 26,50 36,51 -15,35 -36,91 -36,-5 10,-51 11,-25 -6,-10 -5,-15 -15,-15 -31,-30 -87,-35 -51,15 0,35 -26,35 -56,-10 -31,-45 -102,21 -15,85 0,106 -51,56 -36,121 -36,-15 -87,-66 -36,31 -61,45 -46,20 -46,-25 -36,21 -46,35 -31,-30 -10,-56 -31,-35 10,-50 67,-51 56,-50 66,-86 11,80 20,10 31,-5 41,-35 77,-41 -16,-75 -26,-66 z" />
<path id="2598" d="M 3169,807 l 15,-25 46,-21 46,20 0,15 1,36 -11,10 -5,20 -20,25 -36,-5 -41,-25 z" />
<path id="2622" d="M 2227,2972 l -26,-46 10,-45 31,-76 5,-70 -32,-202 21,-45 97,25 56,-11 -30,-45 5,-40 20,-51 -51,-70 -52,-161 51,-192 25,-187 61,-141 46,-25 52,10 41,70 5,71 5,50 5,56 -45,111 5,262 -15,25 10,25 51,35 0,26 -30,50 -31,46 -5,55 57,121 -31,50 -97,11 -51,-10 -10,40 -11,25 -5,46 -15,40 -41,0 -5,81 -25,40 z" />
</g>
<path id="Providence" d="M -1087,-3246 l 1075,-37 906,-34 184,-7 317,-11 594,-22 388,-6 -6,379 -7,469 -4,570 363,-77 10,51 -10,30 -10,40 5,56 21,101 10,60 16,76 5,40 -5,40 -15,46 -26,76 -5,20 10,40 11,25 0,25 -15,31 -16,25 -25,40 0,36 -5,40 15,50 16,41 0,106 10,30 16,20 25,30 26,30 10,36 10,30 16,30 10,20 66,38 -280,251 -15,35 -57,10 0,-80 -26,-66 -41,-15 -25,-35 35,-101 -20,-76 -26,-90 -36,-91 -82,-86 -10,-15 15,-70 41,-86 56,-111 35,-86 5,-81 5,-65 -51,-56 -46,86 -5,40 -10,46 0,40 -25,41 -21,55 -41,141 -30,6 -51,-26 -16,21 52,126 15,45 31,30 36,15 25,35 16,26 -5,30 -36,35 -5,56 10,75 16,71 10,55 -5,36 -20,-30 -36,-36 -46,-50 -16,5 -15,30 -61,11 -46,25 -26,10 -26,-10 -30,45 -51,6 -31,-5 -26,10 -15,25 -15,40 -5,15 -16,11 -20,20 0,20 10,65 -20,31 -41,40 -51,56 -1264,37 -1500,48 -25,-1024 -20,-1144 -4,-213 -2,-236 z" />
<g id="Washington">
<path id="2595" d="M -1023,1304 l 1127,3 82,-5 169,-11 1162,-32 10,-71 -36,-70 10,-51 36,-30 20,-30 15,-56 67,-35 71,-41 31,16 31,55 15,5 16,-20 10,-61 30,-45 21,-61 71,-30 51,-15 67,-41 82,10 5,35 10,61 -4,75 20,56 10,35 6,66 -67,0 -25,30 76,30 31,71 -61,40 -46,46 21,45 81,5 16,86 -46,55 -77,25 -107,31 -67,35 -61,-30 -26,51 21,65 51,20 16,76 66,45 21,30 -15,25 0,21 10,35 25,-5 16,5 -21,25 57,207 11,171 -56,116 0,182 31,70 -10,101 -62,0 -20,20 -10,66 36,101 -36,50 -20,86 -56,15 -87,51 -21,25 -10,30 0,81 21,106 -20,75 -46,66 -36,65 -67,91 -51,76 -20,61 -20,50 20,86 -15,35 -56,-15 -31,-40 -26,-36 -51,-25 -56,-30 -31,-15 -5,-35 10,-30 20,-16 31,-35 36,-20 20,-20 10,-16 21,-20 5,-35 -10,-40 10,-26 0,-30 -11,-20 -25,-35 5,-66 -5,-55 -77,10 0,56 -26,65 -15,66 -36,106 1,30 -31,30 -10,30 10,46 -5,55 -51,5 -56,21 -41,10 -16,5 -71,-10 -31,0 -67,10 -56,10 -15,5 -31,11 -36,20 -51,15 -41,5 -10,5 -16,5 -15,0 -36,21 -102,0 -108,20 -56,30 -112,51 -52,20 -35,15 -169,66 -205,71 -107,91 -77,20 -77,11 -72,0 -122,25 -93,-15 -30,15 -31,-5 -31,0 -36,16 -76,20 -87,15 -220,46 -149,61 -112,85 -31,10 -10,-60 -36,0 -72,20 -72,36 -20,-10 -15,-15 10,-56 30,-20 82,-5 103,-5 46,-61 15,-5 20,-66 0,-31 41,-30 62,-45 35,-25 21,-25 10,-35 0,-31 -10,-30 -14,-31 -22,-44 -10,-46 -11,-35 5,-35 10,-26 11,-45 10,-60 5,-61 -10,-30 -11,-30 -10,-21 -18,-19 -18,-31 0,-30 -2,-25 0,-31 -5,-25 6,-20 11,-25 10,-20 16,-10 20,-11 20,-10 62,-40 20,-15 26,-20 25,-11 149,46 21,-32 13,-358 55,-1310 0,-166 z" />
<path id="2700" d="M 1009,6184 l -26,36 -81,40 -82,10 -92,6 -77,15 -118,51 -67,15 -46,-66 10,-40 0,-141 26,-151 66,-51 41,-60 20,-21 36,56 72,55 67,-40 -21,-66 -72,-100 20,-21 31,-50 5,-66 -26,-191 36,-5 159,100 11,182 -36,156 5,96 62,121 z" />
</g>
</g>
<use xlink:href="#Bristol" stroke="none" fill="red" />
</svg>
